<svg width="15" height="17" viewBox="0 0 15 17" fill="none" xmlns="http://www.w3.org/2000/svg">
<path d="M6.89548 4.65009L8.27605 5.11091C8.32294 5.1248 8.36489 5.15792 8.39539 5.20512C8.42589 5.25232 8.44323 5.31096 8.44471 5.37193C8.44471 5.52017 8.34067 5.64262 8.21271 5.64262H7.30708C7.20949 5.64227 7.11286 5.6182 7.02242 5.57173C6.88912 5.50083 6.73547 5.51695 6.63321 5.63618L6.14987 6.20012C6.12751 6.22491 6.10822 6.2538 6.09263 6.28584C6.07267 6.3273 6.05939 6.37336 6.05355 6.42135C6.04772 6.46935 6.04943 6.51833 6.05861 6.56548C6.06778 6.61263 6.08424 6.65702 6.10701 6.69608C6.12979 6.73514 6.15845 6.7681 6.19133 6.79306C6.459 6.99656 6.7587 7.12307 7.06923 7.16365V7.73404C7.06923 8.01762 7.26842 8.24964 7.5111 8.24964H7.95298C8.19592 8.24964 8.39511 8.01762 8.39511 7.73404V7.16687C9.23281 7.05086 9.8665 6.16789 9.75609 5.13669C9.67596 4.39551 9.18473 3.80579 8.57165 3.59955L7.19108 3.13873C7.14419 3.12484 7.10224 3.09172 7.07174 3.04452C7.04124 2.99732 7.0239 2.93868 7.02242 2.87771C7.02242 2.72947 7.12647 2.60701 7.25443 2.60701H8.16005C8.25799 2.60721 8.35498 2.63128 8.44573 2.67791C8.57878 2.74881 8.73268 2.73269 8.83495 2.61346L9.31829 2.04952C9.3399 2.02526 9.35851 1.99701 9.37349 1.96573C9.39361 1.92428 9.40705 1.87819 9.41304 1.83012C9.41902 1.78206 9.41742 1.73296 9.40834 1.68568C9.39926 1.6384 9.38287 1.59386 9.36012 1.55465C9.33737 1.51544 9.30871 1.48232 9.2758 1.45722C9.00804 1.25373 8.70826 1.12722 8.39765 1.08663V0.515602C8.39765 0.232021 8.19872 0 7.95578 0H7.5139C7.27096 0 7.07203 0.232021 7.07203 0.515602V1.08276C6.23534 1.19878 5.60038 2.08174 5.71079 3.11295C5.79067 3.85413 6.28342 4.44385 6.89548 4.65009ZM14.3799 10.5731C14.0797 10.2283 13.6116 10.2508 13.2962 10.5731L10.9456 12.9545C10.6571 13.2477 10.298 13.407 9.92806 13.4057H6.91939C6.81144 13.4057 6.70792 13.3513 6.63158 13.2546C6.55525 13.158 6.51237 13.0268 6.51237 12.8901C6.51237 12.7533 6.55525 12.6222 6.63158 12.5255C6.70792 12.4288 6.81144 12.3745 6.91939 12.3745H8.91101C9.31549 12.3745 9.69224 12.0232 9.75685 11.5173C9.76482 11.4592 9.76874 11.4003 9.76856 11.3413C9.76815 11.0682 9.68221 10.8064 9.52959 10.6134C9.37697 10.4204 9.17014 10.312 8.95451 10.312H4.88428C4.19784 10.3123 3.53232 10.6114 2.99925 11.1592L1.81634 12.3745H0.407023C0.299074 12.3745 0.195546 12.4288 0.119214 12.5255C0.0428827 12.6222 0 12.7533 0 12.8901L0 15.9837C0 16.1204 0.0428827 16.2516 0.119214 16.3483C0.195546 16.445 0.299074 16.4993 0.407023 16.4993H9.48288C9.85266 16.4996 10.2115 16.3405 10.5004 16.0481L14.3476 12.1489C14.4401 12.0551 14.5154 11.9369 14.5681 11.8025C14.6208 11.668 14.6498 11.5206 14.6529 11.3706C14.656 11.2205 14.6332 11.0714 14.5861 10.9336C14.539 10.7959 14.4687 10.6728 14.3801 10.5731H14.3799Z" fill="#017632"/>
</svg>
