<svg width="15" height="17" viewBox="0 0 15 17" fill="none" xmlns="http://www.w3.org/2000/svg">
<path d="M0 13.0609V14.4369C0 15.5744 2.46122 16.4993 5.49481 16.4993C8.52841 16.4993 10.9896 15.5744 10.9896 14.4369V13.0609C9.80767 13.9986 7.64695 14.4369 5.49481 14.4369C3.34268 14.4369 1.18196 13.9986 0 13.0609ZM9.15802 4.12482C12.1916 4.12482 14.6528 3.19996 14.6528 2.06241C14.6528 0.924862 12.1916 0 9.15802 0C6.12443 0 3.66321 0.924862 3.66321 2.06241C3.66321 3.19996 6.12443 4.12482 9.15802 4.12482ZM0 9.68044V11.3433C0 12.4808 2.46122 13.4057 5.49481 13.4057C8.52841 13.4057 10.9896 12.4808 10.9896 11.3433V9.68044C9.80767 10.7761 7.64409 11.3433 5.49481 11.3433C3.34554 11.3433 1.18196 10.7761 0 9.68044ZM11.9054 10.0349C13.5453 9.67721 14.6528 9.01337 14.6528 8.24964V6.87362C13.9889 7.40212 13.013 7.76304 11.9054 7.98539V10.0349ZM5.49481 5.15602C2.46122 5.15602 0 6.30968 0 7.73404C0 9.15839 2.46122 10.312 5.49481 10.312C8.52841 10.312 10.9896 9.15839 10.9896 7.73404C10.9896 6.30968 8.52841 5.15602 5.49481 5.15602ZM11.7709 6.9703C13.488 6.62227 14.6528 5.9391 14.6528 5.15602V3.78001C13.6369 4.58886 11.8911 5.0239 10.0538 5.12702C10.898 5.58784 11.5191 6.20656 11.7709 6.9703Z" fill="#E6A90D"/>
</svg>
