<svg width="15" height="13" viewBox="0 0 15 13" fill="none" xmlns="http://www.w3.org/2000/svg">
<path d="M14.1949 10.3744H1.83155V0.57798C1.83155 0.29311 1.62664 0.0623779 1.37365 0.0623779H0.457848C0.204857 0.0623779 -5.34058e-05 0.29311 -5.34058e-05 0.57798V11.4056C-5.34058e-05 11.975 0.410054 12.4368 0.915749 12.4368H14.1949C14.4479 12.4368 14.6528 12.2061 14.6528 11.9212V10.89C14.6528 10.6052 14.4479 10.3744 14.1949 10.3744ZM13.2791 1.09358H9.90034C9.28847 1.09358 8.98196 1.9266 9.41468 2.41385L10.3419 3.45794L8.24216 5.82262L6.1424 3.45826C5.78467 3.05545 5.20485 3.05545 4.8474 3.45826L2.88157 5.67181C2.70271 5.87322 2.70271 6.19966 2.88157 6.40107L3.52893 7.13C3.7078 7.33141 3.99771 7.33141 4.17658 7.13L5.49476 5.64539L7.59452 8.00974C7.95226 8.41256 8.53207 8.41256 8.88952 8.00974L11.6369 4.91613L12.5642 5.96023C12.9969 6.44747 13.7367 6.10234 13.7367 5.41336V1.60919C13.737 1.32431 13.5321 1.09358 13.2791 1.09358Z" fill="#E30707"/>
</svg>
